<svg xmlns="http://www.w3.org/2000/svg" viewBox="0 0 75.99 27.55"><g id="Layer_2" data-name="Layer 2"><g id="Layer_1-2" data-name="Layer 1"><path d="M74.12,17.44H1.87A1.88,1.88,0,0,1,0,15.56V1.87A1.87,1.87,0,0,1,1.87,0H74.12A1.87,1.87,0,0,1,76,1.87V15.56A1.88,1.88,0,0,1,74.12,17.44ZM25.67,10a8.39,8.39,0,0,0-3.25-1.81,12.41,12.41,0,0,1-2.09-.91,2.88,2.88,0,0,1-1-.92,2.52,2.52,0,0,1-.28-1.27,1.94,1.94,0,0,1,.78-1.65A3.47,3.47,0,0,1,22,2.82a9.29,9.29,0,0,1,3.61.78l.54-1.52a10.26,10.26,0,0,0-4.11-.82,5.34,5.34,0,0,0-3.44,1,3.32,3.32,0,0,0-1.31,2.76,3.89,3.89,0,0,0,.9,2.67,7,7,0,0,0,3,1.78,14.14,14.14,0,0,1,2.23.95,2.94,2.94,0,0,1,1.05.92,2.41,2.41,0,0,1,.31,1.27,2.18,2.18,0,0,1-.88,1.84,4.3,4.3,0,0,1-2.63.67,11.09,11.09,0,0,1-4.16-.85V16a9.9,9.9,0,0,0,4.1.68,6.29,6.29,0,0,0,3.9-1.1,3.7,3.7,0,0,0,1.43-3.09A3.53,3.53,0,0,0,25.67,10ZM31.06.51h-1.7v16h1.7ZM34.82,3a1,1,0,0,0,.71.28A1,1,0,0,0,36.24,3a1.12,1.12,0,0,0,.3-.86,1.11,1.11,0,0,0-.3-.85,1,1,0,0,0-.71-.27,1,1,0,0,0-.71.27,1.13,1.13,0,0,0-.29.85A1.16,1.16,0,0,0,34.82,3Zm1.56,2.19H34.67V16.47h1.71ZM47.32,16.09V14.58a7.51,7.51,0,0,1-2.89.61A2.9,2.9,0,0,1,42,14.08a5.19,5.19,0,0,1-.84-3.18q0-4.36,3.43-4.37a5.51,5.51,0,0,1,1.18.15A7.37,7.37,0,0,1,47,7.06l.52-1.45a5.41,5.41,0,0,0-1.27-.41A7.43,7.43,0,0,0,44.59,5a4.89,4.89,0,0,0-3.87,1.53,6.36,6.36,0,0,0-1.36,4.36,6.14,6.14,0,0,0,1.34,4.25,4.8,4.8,0,0,0,3.78,1.5A6.16,6.16,0,0,0,47.32,16.09Zm9.35.41A8.65,8.65,0,0,0,58.38,16V14.43a9.15,9.15,0,0,1-3.59.76,3.46,3.46,0,0,1-2.67-1,4.43,4.43,0,0,1-1-3h7.74V10.08a5.34,5.34,0,0,0-1.23-3.67A4.24,4.24,0,0,0,54.29,5a4.47,4.47,0,0,0-3.6,1.59,6.54,6.54,0,0,0-1.33,4.32,5.9,5.9,0,0,0,1.44,4.22,5.16,5.16,0,0,0,3.93,1.51A9,9,0,0,0,56.67,16.5Zm-.35-9.19A3.72,3.72,0,0,1,57,9.77H51.16a4.07,4.07,0,0,1,1-2.44,2.78,2.78,0,0,1,2.16-.88A2.53,2.53,0,0,1,56.32,7.31Z" fill="#007d34"/><text transform="translate(19.51 25.11)" font-size="9" fill="#e40002" font-family="OpenSans-Regular, Open Sans">Pizzeria</text></g></g></svg>